<svg xmlns="http://www.w3.org/2000/svg" version="1.1" xmlns:xlink="http://www.w3.org/1999/xlink" xmlns:svgjs="http://svgjs.dev/svgjs" width="1500" height="1500" viewBox="0 0 1500 1500"><rect width="1500" height="1500" fill="#eae5df"></rect><g transform="matrix(0.6666666666666666,0,0,0.6666666666666666,249.39393939393932,593.3885234604679)"><svg viewBox="0 0 396 124" data-background-color="#eae5df" preserveAspectRatio="xMidYMid meet" height="469" width="1500" xmlns="http://www.w3.org/2000/svg" xmlns:xlink="http://www.w3.org/1999/xlink"><g id="tight-bounds" transform="matrix(1,0,0,1,0.24000000000003752,0.11030839307667861)"><svg viewBox="0 0 395.5199999999999 123.77938321384666" height="123.77938321384666" width="395.5199999999999"><g><svg viewBox="0 0 642.2678634829933 200.99999999999997" height="123.77938321384666" width="395.5199999999999"><g><rect width="8.281931510204082" height="200.99999999999997" x="247.27146938775516" y="0" fill="#be959f" opacity="1" stroke-width="0" stroke="transparent" fill-opacity="1" class="rect-qz-0" data-fill-palette-color="primary" rx="1%" id="qz-0" data-palette-color="#be959f"></rect></g><g transform="matrix(1,0,0,1,277.2338498775511,0.4999999999999858)"><svg viewBox="0 0 365.0340136054423 200" height="200" width="365.0340136054423"><g id="textblocktransform"><svg viewBox="0 0 365.0340136054423 200" height="200" width="365.0340136054423" id="textblock"><g><svg viewBox="0 0 365.0340136054423 200" height="200" width="365.0340136054423"><g transform="matrix(1,0,0,1,0,0)"><svg width="365.0340136054423" viewBox="1.1000000000000014 -33 134.15000000000003 70.5" height="200" data-palette-color="#be959f"><svg></svg><svg></svg><g class="wordmark-text-0" data-fill-palette-color="primary" id="text-0"><path d="M13.8 0h-12.7v-0.5l0.9-0.35c0.667-0.267 1.127-0.6 1.38-1 0.247-0.4 0.37-0.933 0.37-1.6v0-26.1c0-0.7-0.123-1.25-0.37-1.65-0.253-0.4-0.713-0.717-1.38-0.95v0l-0.9-0.35v-0.5h14.35c4.067 0 7 0.74 8.8 2.22 1.8 1.487 2.7 3.363 2.7 5.63v0c0 1.7-0.657 3.24-1.97 4.62-1.32 1.387-3.58 2.363-6.78 2.93v0c3.667 0.4 6.35 1.357 8.05 2.87 1.7 1.52 2.55 3.363 2.55 5.53v0c0 1.067-0.233 2.14-0.7 3.22-0.467 1.087-1.257 2.08-2.37 2.98-1.12 0.9-2.647 1.623-4.58 2.17-1.933 0.553-4.383 0.83-7.35 0.83zM11.15-32v14.35h2.15c2.233 0 3.843-0.517 4.83-1.55 0.98-1.033 1.47-2.833 1.47-5.4v0c0-2.667-0.45-4.567-1.35-5.7-0.9-1.133-2.367-1.7-4.4-1.7v0zM11.15-16.65v15.65h2.5c2.5 0 4.36-0.667 5.58-2 1.213-1.333 1.82-3.417 1.82-6.25v0c0-2.667-0.583-4.567-1.75-5.7-1.167-1.133-3.083-1.7-5.75-1.7v0zM43.85 0h-12.95v-0.5l0.75-0.2c0.667-0.2 1.127-0.5 1.38-0.9 0.247-0.4 0.37-0.917 0.37-1.55v0-15.65c0-0.733-0.123-1.277-0.37-1.63-0.253-0.347-0.713-0.587-1.38-0.72v0l-0.75-0.2v-0.5l8.6-2.9 0.5 0.5 0.45 4.3v0.4c0.467-0.933 1.077-1.793 1.83-2.58 0.747-0.78 1.58-1.42 2.5-1.92 0.913-0.5 1.82-0.75 2.72-0.75v0c1.267 0 2.233 0.35 2.9 1.05 0.667 0.7 1 1.583 1 2.65v0c0 1.133-0.323 2.007-0.97 2.62-0.653 0.62-1.43 0.93-2.33 0.93v0c-1.4 0-2.633-0.7-3.7-2.1v0l-0.1-0.1c-0.333-0.467-0.717-0.727-1.15-0.78-0.433-0.047-0.833 0.163-1.2 0.63v0c-0.333 0.3-0.607 0.66-0.82 1.08-0.22 0.413-0.43 0.887-0.63 1.42v0 13.95c0 1.333 0.583 2.167 1.75 2.5v0l1.6 0.45zM62 0.75v0c-1.3 0-2.49-0.25-3.57-0.75-1.087-0.5-1.937-1.31-2.55-2.43-0.62-1.113-0.913-2.587-0.88-4.42v0l0.15-12.85c0-0.767-0.133-1.317-0.4-1.65-0.267-0.333-0.683-0.567-1.25-0.7v0l-0.6-0.2v-0.5l8.95-1.75 0.5 0.5-0.25 7.1v12.05c0 1.067 0.31 1.85 0.93 2.35 0.613 0.5 1.387 0.75 2.32 0.75v0c0.933 0 1.767-0.133 2.5-0.4 0.733-0.267 1.467-0.667 2.2-1.2v0l0.2-16.3c0-0.767-0.117-1.31-0.35-1.63-0.233-0.313-0.667-0.537-1.3-0.67v0l-0.5-0.15v-0.5l8.75-1.9 0.5 0.5-0.15 7.1v13.55c0 0.733 0.1 1.3 0.3 1.7 0.2 0.4 0.633 0.733 1.3 1v0l0.5 0.15v0.5l-8.75 0.5-0.45-2.95c-1.1 0.9-2.29 1.657-3.57 2.27-1.287 0.62-2.797 0.93-4.53 0.93zM93.05 0h-11.75v-0.5l0.7-0.2c1.167-0.333 1.75-1.15 1.75-2.45v0-15.65c0-0.733-0.117-1.277-0.35-1.63-0.233-0.347-0.683-0.587-1.35-0.72v0l-0.75-0.2v-0.5l8.55-2.9 0.5 0.5 0.4 3c1.167-1.033 2.483-1.883 3.95-2.55 1.467-0.667 2.917-1 4.35-1v0c2.2 0 3.893 0.6 5.08 1.8 1.18 1.2 1.77 3.033 1.77 5.5v0 14.4c0 1.3 0.633 2.117 1.9 2.45v0l0.45 0.15v0.5h-11.8v-0.5l0.65-0.2c1.167-0.367 1.75-1.183 1.75-2.45v0-15.95c0-2.133-1.067-3.2-3.2-3.2v0c-1.467 0-3.067 0.733-4.8 2.2v0 17c0 1.3 0.583 2.117 1.75 2.45v0l0.45 0.15zM122.85 0.75v0c-2.533 0-4.733-0.527-6.6-1.58-1.867-1.047-3.307-2.537-4.32-4.47-1.02-1.933-1.53-4.2-1.53-6.8v0c0-2.6 0.543-4.85 1.63-6.75 1.08-1.9 2.563-3.367 4.45-4.4 1.88-1.033 4.003-1.55 6.37-1.55v0c2.367 0 4.483 0.507 6.35 1.52 1.867 1.02 3.343 2.48 4.43 4.38 1.08 1.9 1.62 4.167 1.62 6.8v0c0 2.633-0.507 4.907-1.52 6.82-1.02 1.92-2.453 3.403-4.3 4.45-1.853 1.053-4.047 1.58-6.58 1.58zM122.85-0.25v0c1.167 0 2.1-0.333 2.8-1 0.7-0.667 1.21-1.85 1.53-3.55 0.313-1.7 0.47-4.1 0.47-7.2v0c0-3.133-0.157-5.55-0.47-7.25-0.32-1.7-0.83-2.883-1.53-3.55-0.7-0.667-1.633-1-2.8-1v0c-1.167 0-2.107 0.333-2.82 1-0.72 0.667-1.237 1.85-1.55 3.55-0.32 1.7-0.48 4.117-0.48 7.25v0c0 3.1 0.16 5.5 0.48 7.2 0.313 1.7 0.83 2.883 1.55 3.55 0.713 0.667 1.653 1 2.82 1z" fill="#be959f" fill-rule="nonzero" stroke="none" stroke-width="1" stroke-linecap="butt" stroke-linejoin="miter" stroke-miterlimit="10" stroke-dasharray="" stroke-dashoffset="0" font-family="none" font-weight="none" font-size="none" text-anchor="none" style="mix-blend-mode: normal" data-fill-palette-color="primary" opacity="1"></path><path transform="translate(0,36.75)" d="M13.4 0.75v0c-2.267 0-4.323-0.493-6.17-1.48-1.853-0.98-3.32-2.413-4.4-4.3-1.087-1.88-1.63-4.187-1.63-6.92v0c0-2.7 0.593-5.01 1.78-6.93 1.18-1.913 2.763-3.38 4.75-4.4 1.98-1.013 4.153-1.52 6.52-1.52v0c1.933 0 3.567 0.317 4.9 0.95 1.333 0.633 2.35 1.457 3.05 2.47 0.7 1.02 1.05 2.08 1.05 3.18v0c0 0.933-0.283 1.657-0.85 2.17-0.567 0.52-1.3 0.78-2.2 0.78v0c-0.967 0-1.75-0.35-2.35-1.05-0.6-0.7-0.95-1.617-1.05-2.75v0c-0.033-0.733-0.017-1.36 0.05-1.88 0.067-0.513 0.067-1.037 0-1.57v0c-0.133-0.567-0.34-0.943-0.62-1.13-0.287-0.18-0.68-0.27-1.18-0.27v0c-2.033 0-3.607 0.883-4.72 2.65-1.12 1.767-1.68 4.583-1.68 8.45v0c0 3.367 0.627 5.94 1.88 7.72 1.247 1.787 3.17 2.68 5.77 2.68v0c1.567 0 2.833-0.283 3.8-0.85 0.967-0.567 1.9-1.417 2.8-2.55v0l0.5 0.4c-0.833 1.967-2.117 3.483-3.85 4.55-1.733 1.067-3.783 1.6-6.15 1.6zM38.35 0.75v0c-2.533 0-4.733-0.527-6.6-1.58-1.867-1.047-3.307-2.537-4.32-4.47-1.02-1.933-1.53-4.2-1.53-6.8v0c0-2.6 0.543-4.85 1.63-6.75 1.08-1.9 2.563-3.367 4.45-4.4 1.88-1.033 4.003-1.55 6.37-1.55v0c2.367 0 4.483 0.507 6.35 1.52 1.867 1.02 3.343 2.48 4.43 4.38 1.08 1.9 1.62 4.167 1.62 6.8v0c0 2.633-0.507 4.907-1.52 6.82-1.02 1.92-2.453 3.403-4.3 4.45-1.853 1.053-4.047 1.58-6.58 1.58zM38.35-0.25v0c1.167 0 2.1-0.333 2.8-1 0.7-0.667 1.21-1.85 1.53-3.55 0.313-1.7 0.47-4.1 0.47-7.2v0c0-3.133-0.157-5.55-0.47-7.25-0.32-1.7-0.83-2.883-1.53-3.55-0.7-0.667-1.633-1-2.8-1v0c-1.167 0-2.107 0.333-2.82 1-0.72 0.667-1.237 1.85-1.55 3.55-0.32 1.7-0.48 4.117-0.48 7.25v0c0 3.1 0.16 5.5 0.48 7.2 0.313 1.7 0.83 2.883 1.55 3.55 0.713 0.667 1.653 1 2.82 1z" fill="#be959f" fill-rule="nonzero" stroke="none" stroke-width="1" stroke-linecap="butt" stroke-linejoin="miter" stroke-miterlimit="10" stroke-dasharray="" stroke-dashoffset="0" font-family="none" font-weight="none" font-size="none" text-anchor="none" style="mix-blend-mode: normal" data-fill-palette-color="primary" opacity="1"></path></g></svg></g></svg></g></svg></g></svg></g><g transform="matrix(1,0,0,1,0,38.99409902984144)"><svg viewBox="0 0 225.59102040816333 123.01180194031708" height="123.01180194031708" width="225.59102040816333"><g><svg xmlns="http://www.w3.org/2000/svg" xmlns:xlink="http://www.w3.org/1999/xlink" version="1.1" x="0" y="0" viewBox="1.7199999999999953 19.4 96.46300181202601 52.6" enable-background="new 0 0 100 100" xml:space="preserve" height="123.01180194031708" width="225.59102040816333" class="icon-icon-0" data-fill-palette-color="accent" id="icon-0"><path fill="#13472e" d="M97.189 50.816c-0.159-0.04-0.306-0.053-0.45-0.026 0.092-2.015 0.132-4.255 0.132-6.734 0-5.09 0.397-11.148 0.9-16.756 0 0-23.674-0.199-40.006-7.9-1.232 7.211-33.656 12.912-36.307 13.362-0.014-0.013-0.04-0.013-0.053-0.013 0 0-0.438-0.04-1.193-0.04-8.935 0-18.492 4.918-18.492 18.545C1.72 71.059 20.411 72 20.649 72h44.116c25.94 0 33.418-0.902 33.418-19.845C98.184 51.545 97.771 50.976 97.189 50.816zM79.429 28.622c6.448 0 11.675 5.227 11.675 11.674 0 6.448-5.227 11.675-11.675 11.675-6.447 0-11.674-5.227-11.674-11.675C67.755 33.848 72.981 28.622 79.429 28.622zM93.357 63.848c-3.035 4.719-9.914 5.194-24.35 5.261C67.655 69.121 66.25 69 64.766 69H20.703c-0.04 0-0.146 0.121-0.292 0.108-2.281-0.159-16.04-1.836-16.04-17.968 0-14.29 11.082-15.811 15.841-15.811l5.555 24.766C25.899 60.691 26.43 61 27.052 61H65.72c12.605 0 23.741 0.145 29.693-5.158C95.188 59.275 94.577 61.965 93.357 63.848z" data-fill-palette-color="accent"></path><polygon fill="#13472e" points="78.988,31.113 81.688,36.582 87.723,37.458 83.356,41.715 84.387,47.726 78.988,44.888   73.59,47.726 74.621,41.715 70.254,37.458 76.289,36.582 " data-fill-palette-color="accent"></polygon></svg></g></svg></g></svg></g><defs></defs></svg><rect width="395.5199999999999" height="123.77938321384666" fill="none" stroke="none" visibility="hidden"></rect></g></svg></g></svg>